<?xml version="1.0" standalone="no"?>
<!DOCTYPE svg PUBLIC "-//W3C//DTD SVG 20010904//EN"
 "http://www.w3.org/TR/2001/REC-SVG-20010904/DTD/svg10.dtd">
<svg version="1.0" xmlns="http://www.w3.org/2000/svg"
 width="398.000000pt" height="398.000000pt" viewBox="0 0 398.000000 398.000000"
 preserveAspectRatio="xMidYMid meet">
<metadata>
Created by potrace 1.11, written by Peter Selinger 2001-2013
</metadata>
<g transform="translate(0.000000,398.000000) scale(0.100000,-0.100000)"
fill="#000000" stroke="none">
<path d="M0 3270 l0 -710 114 0 c62 0 134 -3 160 -6 l46 -7 0 -146 c0 -80 -4
-152 -8 -158 -6 -10 -20 -8 -60 7 -29 11 -76 20 -106 20 -49 0 -57 -3 -100
-43 l-46 -43 0 -267 0 -268 75 -147 c48 -95 76 -164 80 -194 l6 -47 -80 6 -81
6 0 -637 0 -636 1990 0 1990 0 0 565 0 565 -72 1 c-40 1 -101 4 -136 8 l-63 6
19 35 c10 19 51 86 91 149 59 92 77 130 96 205 32 121 55 256 55 325 0 63 -32
141 -75 181 -35 33 -114 43 -184 25 -30 -8 -56 -13 -57 -12 -2 1 4 79 11 172
8 94 15 179 15 190 0 19 5 20 150 15 l150 -5 0 778 0 777 -1990 0 -1990 0 0
-710z m1960 -805 c734 -25 1363 -48 1398 -51 l62 -6 0 -37 c0 -21 -11 -98 -25
-171 -14 -73 -25 -162 -25 -197 0 -61 2 -67 53 -139 28 -42 62 -92 73 -112
l22 -37 -23 -175 c-21 -155 -41 -267 -61 -337 -3 -13 -14 -23 -23 -23 -9 0
-257 9 -551 20 -294 11 -563 20 -596 20 l-62 0 -17 43 c-15 38 -16 55 -5 182
12 129 11 150 -9 277 -17 113 -19 146 -10 189 9 42 9 54 -4 66 -25 25 -54 7
-66 -42 -16 -63 -14 -110 10 -241 18 -105 19 -126 8 -231 -6 -64 -9 -142 -5
-174 l6 -59 -98 0 c-53 0 -134 3 -179 6 l-82 7 20 51 c14 38 19 76 19 147 0
67 9 144 30 249 42 216 39 290 -14 290 -29 0 -40 -25 -31 -72 4 -20 -4 -85
-20 -163 -15 -71 -31 -187 -35 -257 -4 -76 -15 -152 -26 -188 l-19 -60 -42 0
c-24 0 -43 3 -43 8 0 4 -116 8 -258 10 -141 2 -396 9 -567 15 l-310 12 -12 54
c-30 136 -44 501 -22 544 7 11 33 42 59 68 25 27 59 71 75 100 26 49 28 60 27
158 0 58 -3 150 -7 203 l-7 98 28 0 c16 0 630 -20 1364 -45z m-1737 -309 c18
-7 44 -26 60 -41 23 -23 27 -36 27 -82 l0 -54 -42 34 c-51 41 -119 77 -148 77
-34 0 -25 -36 13 -50 130 -50 177 -131 177 -305 0 -51 -5 -88 -13 -100 -33
-48 -25 -126 17 -175 8 -8 18 -50 23 -92 l9 -78 -42 0 -43 0 -11 57 c-7 32
-42 114 -83 192 -78 151 -91 197 -103 390 -8 129 -2 170 32 211 29 34 72 40
127 16z m3613 -198 c48 -54 48 -108 4 -328 -26 -130 -39 -157 -132 -296 -41
-61 -78 -123 -82 -139 -6 -25 -10 -27 -43 -22 -19 4 -38 8 -40 11 -10 10 11
99 28 114 37 35 50 108 27 157 -17 37 4 190 37 263 28 62 74 99 156 123 42 13
59 33 43 49 -14 14 -112 -18 -163 -52 l-44 -29 6 52 c4 28 14 60 22 69 47 52
147 67 181 28z"/>
<path d="M2342 2423 c-34 -3 -51 -12 -84 -45 -36 -36 -40 -44 -35 -76 4 -19
16 -46 29 -59 l23 -24 205 6 c166 6 222 4 295 -9 102 -18 223 -71 308 -135 30
-23 59 -41 66 -41 45 0 -12 103 -117 212 -46 47 -71 64 -141 91 -47 19 -111
42 -141 50 -50 14 -296 39 -344 35 -12 -1 -40 -3 -64 -5z"/>
<path d="M1075 2331 c-67 -11 -151 -50 -229 -105 -79 -57 -93 -73 -78 -88 9
-9 33 -7 94 7 119 26 382 32 567 11 79 -9 176 -16 215 -16 69 0 72 1 94 33 25
37 28 64 10 102 -24 54 -48 58 -348 61 -151 2 -297 -1 -325 -5z"/>
<path d="M1138 2090 c-122 -21 -196 -65 -249 -149 -34 -53 -37 -81 -9 -88 11
-3 29 -20 40 -38 24 -38 110 -99 170 -120 144 -51 361 -35 500 35 20 10 52 21
73 25 48 9 61 27 54 74 -22 168 -323 304 -579 261z m297 -60 c73 -23 119 -47
170 -88 29 -23 65 -70 65 -83 0 -4 -37 6 -82 22 -46 15 -119 35 -163 44 -98
21 -324 30 -423 18 l-73 -9 38 38 c34 35 104 67 183 82 56 11 217 -3 285 -24z
m-315 -135 l0 -35 -73 0 c-69 0 -75 2 -85 25 -14 30 -10 33 58 38 107 8 100
11 100 -28z m493 -46 c15 -6 27 -15 27 -19 0 -12 -77 -21 -121 -14 -35 6 -40
10 -35 28 3 12 6 26 6 33 0 11 58 -2 123 -28z m-358 -19 c120 -11 287 -37 319
-50 18 -7 14 -11 -29 -31 -191 -86 -471 -53 -579 70 l-19 21 99 0 c54 0 149
-5 209 -10z"/>
<path d="M2569 2019 c-89 -7 -192 -39 -247 -77 -85 -57 -143 -160 -112 -196 6
-8 26 -18 43 -22 17 -3 54 -22 82 -41 27 -18 86 -45 130 -60 69 -23 97 -27
210 -27 114 -1 138 2 193 23 35 13 84 42 110 66 26 23 55 44 65 48 30 11 30
33 -1 93 -63 123 -161 175 -367 196 -16 2 -64 0 -106 -3z m231 -56 c77 -21
143 -57 174 -94 15 -17 25 -33 22 -36 -2 -2 -37 3 -77 12 -161 35 -457 30
-609 -10 -56 -15 -59 -11 -27 25 95 108 330 155 517 103z m-117 -120 c-7 -2
-19 -2 -25 0 -7 3 -2 5 12 5 14 0 19 -2 13 -5z m-243 -37 c0 -33 -1 -34 -45
-38 -54 -4 -132 25 -101 38 16 6 113 29 139 33 4 1 7 -14 7 -33z m483 13 c48
-11 59 -27 33 -48 -9 -8 -35 -10 -80 -5 l-66 7 0 34 c0 39 -7 38 113 12z m43
-82 c12 -12 -18 -37 -85 -69 -64 -32 -70 -33 -196 -33 -141 0 -219 18 -315 74
l-45 26 30 7 c37 9 602 4 611 -5z"/>
</g>
</svg>
